<?xml version="1.0" encoding="utf-8"?>
<!-- Generator: Adobe Illustrator 13.0.0, SVG Export Plug-In . SVG Version: 6.00 Build 14948)  -->
<!DOCTYPE svg PUBLIC "-//W3C//DTD SVG 1.0//EN" "http://www.w3.org/TR/2001/REC-SVG-20010904/DTD/svg10.dtd">
<svg version="1.0" xmlns="http://www.w3.org/2000/svg" xmlns:xlink="http://www.w3.org/1999/xlink" x="0px" y="0px" width="580px"
	 height="580px" viewBox="0 0 580 580" enable-background="new 0 0 580 580" xml:space="preserve">
<g id="地図記号">
</g>
<g id="レイヤー_4">
	<path fill="#FE0000" d="M58.221,120.571c0,0-23.721,24.156-9.946,58.481c12.532,31.23,24.156,53.564,22.278,101.845
		c-1.393,35.805-32.622,75.589-44.358,121.339c-6.62,25.803-3.997,65.647,5.769,100.254c9.765,34.604,11.307,55.174,11.307,55.174
		H526.88c0,0,16.658-28.632,25.854-63.765c8.372-31.988,7.291-85.714-11.339-114.109s-43.837-39.672-56.3-74.812
		c-13.639-38.453-6.041-78.211,3.779-105.792c6.688-18.785,13.16-21.308,13.16-21.308s-56.399,9.038-81.171,60.979
		c-27.748,58.189-9.833,92.105-7.174,125.821c2.662,33.717-11.71,68.769-43.45,68.39c-25.735-0.305-48.367-11.326-48.367-46.092
		c0-31.748,13.041-54.684,32.499-93.33c27.58-54.789,27.231-84.719,22.668-124.316C366.46,77.512,292.475,28.057,223.259,22.73
		c-69.216-5.327-82.376,3.413-133.846,27.369c0,0,57.45,0.753,85.186,11.538c30.148,11.724,69.322,47.734,70.988,94.056
		c0.721,20.06-1.423,40.555-20.059,65.4c-18.636,24.846-34.382,24.939-64.231,75.196c-8.466,14.254-13.602,26.444-13.602,26.444
		s4.712-46.832-4.157-69.901c-8.871-23.067-29.483-48.281-47.23-61.589C78.56,177.934,56.257,145.144,58.221,120.571z"/>
</g>
<g id="レイヤー_3">
</g>
<g id="ガイド" display="none">
</g>
</svg>
