<?xml version="1.0" encoding="utf-8"?>
<!-- Generator: Adobe Illustrator 13.0.0, SVG Export Plug-In . SVG Version: 6.00 Build 14948)  -->
<!DOCTYPE svg PUBLIC "-//W3C//DTD SVG 1.0//EN" "http://www.w3.org/TR/2001/REC-SVG-20010904/DTD/svg10.dtd">
<svg version="1.0" xmlns="http://www.w3.org/2000/svg" xmlns:xlink="http://www.w3.org/1999/xlink" x="0px" y="0px" width="580px"
	 height="580px" viewBox="0 0 580 580" enable-background="new 0 0 580 580" xml:space="preserve">
<g id="地図記号">
</g>
<g id="レイヤー_4">
	<g>
		<path fill="#963836" d="M51.7,336.419c0,26.778,9.104,63.815,20.567,68.518c15.115,6.203,52.407-0.561,65.676-5.173
			c13.265-4.612,33.451-15.513,38.407-35.163c3.232-12.773,7.469-47.91-0.492-57.142c-7.966-9.23-38.164-15.772-45.599-16.031
			c-16.823-0.591-48.152,4.254-57.495,12.673C64.71,311.36,51.7,321.657,51.7,336.419z"/>
		<path fill="#963836" d="M157.291,146.093c1.044,24.965,9.044,37.097,27.513,49.909c18.363,12.734,51.798,32.319,64.185,34.385
			c17.418,2.906,34.042-2.546,48.327-14.22c14.872-12.149,35.131-26.866,36.436-49.384c1.32-22.839-3.608-55.87-28.751-73.19
			c-26.268-18.098-47.853-30.91-69.144-30.247c-16.601,0.52-30.248,8.795-48.081,26.894
			C169.749,108.532,156.407,124.868,157.291,146.093z"/>
		<path fill="#963836" d="M32.187,495.189v63.351h513.9V22.354H424.027c0,0-9.23,47.191-0.061,65.549
			c6.396,12.806,26.27,29.225,29.495,53.268c2.856,21.335-4.558,44.925-18.822,62.068c-12.905,15.519-29.03,28.723-69.919,41.904
			c-14.589,4.701-46.765,41.197-50.306,56.888c-3.541,15.684,1.48,33.351-6.204,48.869c-11.083,22.374-23.794,32.578-48.577,37.749
			c-16.689,3.486-31.722,0.896-44.114,14.74c-12.385,13.85-36.506,50.053-51.549,55.594c-15.038,5.541-41.638,9.319-58.368,16.502
			C89.868,482.24,57.147,482.771,32.187,495.189z"/>
	</g>
</g>
<g id="レイヤー_3">
</g>
<g id="ガイド" display="none">
</g>
</svg>
