<?xml version="1.0" encoding="utf-8"?>
<!-- Generator: Adobe Illustrator 13.0.0, SVG Export Plug-In . SVG Version: 6.00 Build 14948)  -->
<!DOCTYPE svg PUBLIC "-//W3C//DTD SVG 1.0//EN" "http://www.w3.org/TR/2001/REC-SVG-20010904/DTD/svg10.dtd">
<svg version="1.0" xmlns="http://www.w3.org/2000/svg" xmlns:xlink="http://www.w3.org/1999/xlink" x="0px" y="0px" width="580px"
	 height="580px" viewBox="0 0 580 580" enable-background="new 0 0 580 580" xml:space="preserve">
<g id="地図記号">
</g>
<g id="レイヤー_4">
	<path fill="#1E57D0" d="M262.757,112.13c0,0,1.678,41.942-47.838,59.27c-47.417,16.606-112.302-2.398-122.532-43.331
		c-5.875-23.487,13.599-50.775,58.748-73.817c39.446-20.132,105.747-41.942,202.261-21.81
		c101.419,21.154,161.425,112.404,180.44,152.668c19.014,40.264,24.626,95.916,24.626,95.916v274.012H21.34V452.148
		c0,0,61.318,14.077,113.01,0.551c70.498-18.454,134.281-43.62,171.209-113.244c31.472-59.321,17.073-110.175,6.713-146.795
		C301.362,154.073,281.22,127.23,262.757,112.13z"/>
</g>
<g id="レイヤー_3">
</g>
<g id="ガイド" display="none">
</g>
</svg>
