<?xml version="1.0" encoding="utf-8"?>
<!-- Generator: Adobe Illustrator 13.0.0, SVG Export Plug-In . SVG Version: 6.00 Build 14948)  -->
<!DOCTYPE svg PUBLIC "-//W3C//DTD SVG 1.0//EN" "http://www.w3.org/TR/2001/REC-SVG-20010904/DTD/svg10.dtd">
<svg version="1.0" xmlns="http://www.w3.org/2000/svg" xmlns:xlink="http://www.w3.org/1999/xlink" x="0px" y="0px" width="580px"
	 height="580px" viewBox="0 0 580 580" enable-background="new 0 0 580 580" xml:space="preserve">
<g id="地図記号">
</g>
<g id="レイヤー_4">
	<path fill="#007456" d="M393.018,472.66H52.916c-17.455,0-31.592,14.264-31.592,31.875c0,17.598,14.137,31.873,31.592,31.873
		h340.103c17.442,0,31.578-14.275,31.578-31.873C424.596,486.924,410.461,472.66,393.018,472.66z M314.048,119.957
		c21.519,0,38.958-17.598,38.958-39.304c0-21.712-17.439-39.31-38.958-39.31c-21.52,0-38.958,17.597-38.958,39.31
		C275.089,102.358,292.528,119.957,314.048,119.957z M524.773,344.54c0,0-9.904-0.017-11.838,0h-76.952l-3.878-79.326
		c-0.162-3.362-1.112-12.026-2.138-14.918l0,0l-36.77-87.053h41.845l30.759,53.901c5.177,9.178,16.753,12.387,25.851,7.161
		c9.093-5.235,11.009-16.916,5.831-26.09l-37.211-63.553c-3.383-5.994-9.629-9.654-16.459-9.654H318.118
		c-6.014,0-11.726,2.917-15.288,7.819l-48.251,66.445l-58.825-1.36c-10.457-0.245-19.144,8.124-19.384,18.674
		c-0.231,10.563,8.051,19.316,18.521,19.562l68.695,1.591c0.142,0.002,0.287,0.006,0.432,0.006c6.046,0,11.713-2.882,15.303-7.822
		l30.098-41.447l30.622,71.843l-79.234,168.905l-11.645,25.982c0,0,5.636,0,20.288,0h5.449c4.321,0,5.512,0,9.297,0
		c9.285,0,18.219-5.092,22.639-14.039l77.404-157.605h2.646l4.116,82.188c0.587,11.908,10.281,21.201,22.071,21.204
		c0.065,0,0.13-0.003,0.195-0.003l143.819-0.989c0,0-17.469-34.256-21.793-38.618C532.192,344.216,524.773,344.54,524.773,344.54z"
		/>
</g>
<g id="レイヤー_3">
</g>
<g id="ガイド" display="none">
</g>
</svg>
