<?xml version="1.0" encoding="utf-8"?>
<!-- Generator: Adobe Illustrator 13.0.0, SVG Export Plug-In . SVG Version: 6.00 Build 14948)  -->
<!DOCTYPE svg PUBLIC "-//W3C//DTD SVG 1.0//EN" "http://www.w3.org/TR/2001/REC-SVG-20010904/DTD/svg10.dtd">
<svg version="1.0" xmlns="http://www.w3.org/2000/svg" xmlns:xlink="http://www.w3.org/1999/xlink" x="0px" y="0px" width="580px"
	 height="580px" viewBox="0 0 580 580" enable-background="new 0 0 580 580" xml:space="preserve">
<g id="地図記号">
</g>
<g id="レイヤー_4">
	<g>
		<g>
			<path fill="#007456" d="M254.902,220.451c16.839,0,30.483-13.646,30.483-30.479c0-16.835-13.644-30.483-30.483-30.483
				c-16.835,0-30.48,13.647-30.48,30.483C224.422,206.804,238.066,220.451,254.902,220.451z"/>
			<path fill="#007456" d="M423.173,398.442c0,0-7.752-0.011-9.266,0h-60.203l-4.146-61.37c-0.128-2.607-0.869-9.327-1.672-11.57
				l0,0l-29.694-73.534h34.428l25.615,43.197c4.051,7.12,13.106,9.609,20.226,5.555c7.114-4.058,6.841-13.117,2.787-20.233
				l-29.643-49.301c-2.648-4.647-7.536-7.486-12.88-7.486h-98.342c-4.704,0-9.175,2.261-11.96,6.061l-36.404,51.735l-48.606-0.492
				c-8.184-0.19-14.979,6.301-15.167,14.483c-0.182,8.192,6.3,14.979,14.492,15.169l56.328,0.669
				c0.112,0.004,0.225,0.006,0.339,0.006c4.73,0,9.161-2.236,11.972-6.064l22.635-30.989l25.195,58.998l-65.873,134.703l-9.11,20.15
				c0,0,2.728,0,14.194,0h4.261c3.381,0,4.314,0,7.275,0c7.264,0,14.253-3.948,17.711-10.889l65.549-127.007h2.073l3.218,64.659
				c0.461,9.235,8.044,16.441,17.271,16.443c0.05,0,0.101-0.002,0.151-0.002l112.524-0.767c0,0-13.667-26.564-17.051-29.947
				C428.974,398.192,423.173,398.442,423.173,398.442z"/>
			<polygon fill="#007456" points="474.615,452.689 474.602,205.394 296.199,99.461 128.502,204.849 128.502,452.689 
				64.418,452.689 64.418,169.443 295.255,24.371 538.685,168.915 538.685,452.689 474.615,452.689 			"/>
		</g>
		<path fill="#007456" d="M317.091,501.718H67.99c-15.692,0-28.4,12.709-28.4,28.4c0,15.681,12.708,28.4,28.4,28.4h249.101
			c15.681,0,28.389-12.72,28.389-28.4C345.479,514.427,332.771,501.718,317.091,501.718z"/>
	</g>
</g>
<g id="レイヤー_3">
</g>
<g id="ガイド" display="none">
</g>
</svg>
