<?xml version="1.0" encoding="utf-8"?>
<!-- Generator: Adobe Illustrator 13.0.0, SVG Export Plug-In . SVG Version: 6.00 Build 14948)  -->
<!DOCTYPE svg PUBLIC "-//W3C//DTD SVG 1.0//EN" "http://www.w3.org/TR/2001/REC-SVG-20010904/DTD/svg10.dtd">
<svg version="1.0" xmlns="http://www.w3.org/2000/svg" xmlns:xlink="http://www.w3.org/1999/xlink" x="0px" y="0px" width="580px"
	 height="580px" viewBox="0 0 580 580" enable-background="new 0 0 580 580" xml:space="preserve">
<g id="地図記号">
</g>
<g id="レイヤー_4">
	<g>
		<path fill="#007456" d="M237.28,246.079c19.071,0.012,34.537-15.41,34.548-34.444c0.012-19.034-15.436-34.476-34.506-34.487
			c-19.065-0.011-34.531,15.411-34.542,34.447C202.767,230.628,218.214,246.067,237.28,246.079z"/>
		<path fill="#007456" d="M427.737,454.033c0,0-8.782-0.019-10.496-0.006l-68.186-0.04l-4.65-75.98
			c-0.14-2.946-0.974-10.55-1.885-13.083l0,0l-34.554-77.956l41.235,0.024l26.349,47.673c4.581,8.054,14.837,10.875,22.906,6.298
			c8.057-4.586,9.765-14.826,5.175-22.877l-32.934-55.741c-3.001-5.258-8.533-8.471-14.583-8.474l-111.385-0.067
			c-5.329-0.003-10.394,2.551-13.548,6.847l-49.117,61.004l-52.124-1.224c-9.264-0.222-16.968,7.11-17.187,16.364
			c-0.211,9.264,7.129,16.942,16.406,17.163l60.873,1.429c0.122,0.004,0.25,0.006,0.379,0.006
			c5.354,0.003,10.381-2.521,13.566-6.847l31.748-37.893l29.007,63.011l-74.704,158.855l-10.335,22.774c0,0,3.093,0.002,16.081,0.01
			l4.82,0.003c3.834,0.002,4.89,0.002,8.247,0.005c8.221,0.005,16.141-4.451,20.064-12.298l74.332-150.152l2.346,0.002l3.599,79.696
			c0.515,10.444,9.1,18.597,19.55,18.606c0.051,0,0.115-0.004,0.167-0.004l127.448-0.789c0,0-15.466-30.048-19.288-33.873
			C434.309,453.755,427.737,454.033,427.737,454.033z"/>
		<polygon fill="#007456" points="485.939,556.03 486.122,229.2 284.131,109.304 94.135,228.353 93.94,555.797 21.354,555.754 
			21.573,188.277 283.111,24.399 558.724,187.998 558.506,556.074 485.939,556.03 		"/>
	</g>
</g>
<g id="レイヤー_3">
</g>
<g id="ガイド" display="none">
</g>
</svg>
