<?xml version="1.0" encoding="utf-8"?>
<!-- Generator: Adobe Illustrator 13.0.0, SVG Export Plug-In . SVG Version: 6.00 Build 14948)  -->
<!DOCTYPE svg PUBLIC "-//W3C//DTD SVG 1.0//EN" "http://www.w3.org/TR/2001/REC-SVG-20010904/DTD/svg10.dtd">
<svg version="1.0" xmlns="http://www.w3.org/2000/svg" xmlns:xlink="http://www.w3.org/1999/xlink" x="0px" y="0px" width="580px"
	 height="580px" viewBox="0 0 580 580" enable-background="new 0 0 580 580" xml:space="preserve">
<g id="地図記号">
	<g>
		<path d="M0.604,437.064l9.361,8.186l72.771,63.539h292.391V141.638l-89.442-65.964L0.604,437.064z M348.988,482.652H114.605
			l234.383-296.789V482.652z M343.435,150.738L85.89,476.848l-16.235-14.172l257.29-324.101L343.435,150.738z M305.896,123.054
			L49.949,445.469L36.515,433.74l254.018-322.017L305.896,123.054z M556.09,115.092c-9.891-7.707-21.746-12.873-34.236-15.083h0.996
			V76.241c0-16.383-13.775-19.977-30.766-19.977h-12.18c-16.99,0-30.777,3.593-30.777,19.977v23.769h1.008
			c-12.496,2.21-24.357,7.375-34.248,15.083c-13.332,10.346-23.27,26.279-23.244,45.221v316.945
			c-0.158,11.248,5.752,21.205,13.275,27.162c11.352,9.131,25.643,12.883,40.02,15.338c14.361,2.348,28.893,2.854,40.053,2.867
			c14.893-0.035,35.701-0.873,54.289-5.904c9.309-2.584,18.236-6.135,25.771-12.301c7.533-5.957,13.443-15.914,13.285-27.162
			V160.313C579.359,141.372,569.414,125.438,556.09,115.092z M553.191,477.258c-0.158,3.016-0.715,4.234-3.771,7.012
			c-4.531,3.967-15.404,7.83-27.58,9.697c-12.189,2.006-25.576,2.537-35.85,2.527c-13.676,0.031-33.01-1-47.406-4.986
			c-7.191-1.926-12.99-4.656-16.037-7.238c-3.059-2.777-3.613-3.996-3.771-7.012V288.529c20.518,6.538,48.359,7.272,67.215,7.375
			c14.658-0.016,35.139-0.598,52.967-3.828c4.98-0.924,9.727-2.052,14.234-3.511V477.258z M553.191,201.471
			c-0.934,1.016-3.158,2.756-6.885,4.298c-13.898,6.186-42.295,8.003-60.313,7.86c-13.822,0.021-33.381-0.811-48.279-4.165
			c-7.414-1.612-13.617-4.001-16.791-6.211c-1.047-0.699-1.719-1.321-2.148-1.796v-41.143c0.029-9.605,4.758-17.9,13.229-24.662
			c8.361-6.6,20.213-10.739,31.43-10.739c0.063,0,0.123,0,0.184,0.005h44.754c11.246-0.046,23.199,4.099,31.59,10.734
			c8.484,6.762,13.211,15.057,13.23,24.662V201.471z"/>
	</g>
</g>
<g id="ガイド">
</g>
</svg>
