<?xml version="1.0" encoding="utf-8"?>
<!-- Generator: Adobe Illustrator 13.0.0, SVG Export Plug-In . SVG Version: 6.00 Build 14948)  -->
<!DOCTYPE svg PUBLIC "-//W3C//DTD SVG 1.0//EN" "http://www.w3.org/TR/2001/REC-SVG-20010904/DTD/svg10.dtd">
<svg version="1.0" xmlns="http://www.w3.org/2000/svg" xmlns:xlink="http://www.w3.org/1999/xlink" x="0px" y="0px" width="580px"
	 height="580px" viewBox="0 0 580 580" enable-background="new 0 0 580 580" xml:space="preserve">
<g id="地図記号">
	<path fill="#231815" d="M478.695,20.846l-15.526,62.115h-71.55V14.749H104.887v68.213H0.256l61.552,245.83h339.926l-27.292,109.207
		l-283.286,0.016v9.131c-32.253,0.057-58.387,26.227-58.387,58.496c0,32.311,26.19,58.5,58.497,58.5
		c32.311,0,58.506-26.189,58.506-58.5c0-16.059-6.478-30.59-16.946-41.164h217.593c-10.471,10.574-16.942,25.105-16.942,41.164
		c0,32.311,26.186,58.5,58.496,58.5c32.312,0,58.497-26.189,58.497-58.5c0-29.811-22.314-54.365-51.141-57.99l100.03-400.337h79.993
		V20.846H478.695z M456.557,109.434l-20.156,80.636h-44.782v-80.636H456.557z M131.342,216.542h37v73.487h-37V216.542z
		 M194.816,290.029v-73.487h45.51v73.487H194.816z M266.794,290.029v-73.487h31.031v73.487H266.794z M266.794,190.07v-80.636h31.031
		v80.636H266.794z M240.326,190.07h-45.51v-80.636h45.51V190.07z M168.342,190.07h-37v-80.636h37V190.07z M365.162,290.029h-40.868
		v-73.487h40.868V290.029z M324.294,190.07v-80.636h40.868v80.636H324.294z M365.162,82.961h-98.368V41.21h98.368V82.961z
		 M131.342,41.21h108.984v41.751H131.342V41.21z M104.887,109.434v80.636H54.358l-20.193-80.636H104.887z M60.99,216.542h43.897
		v85.781H82.471L60.99,216.542z M391.619,302.322v-85.781h38.17l-21.44,85.781H391.619z"/>
</g>
<g id="ガイド">
</g>
</svg>
