<?xml version="1.0" encoding="utf-8"?>
<!-- Generator: Adobe Illustrator 13.0.0, SVG Export Plug-In . SVG Version: 6.00 Build 14948)  -->
<!DOCTYPE svg PUBLIC "-//W3C//DTD SVG 1.0//EN" "http://www.w3.org/TR/2001/REC-SVG-20010904/DTD/svg10.dtd">
<svg version="1.0" xmlns="http://www.w3.org/2000/svg" xmlns:xlink="http://www.w3.org/1999/xlink" x="0px" y="0px" width="580px"
	 height="580px" viewBox="0 0 580 580" enable-background="new 0 0 580 580" xml:space="preserve">
<g id="地図記号">
	<g>
		<rect x="272.552" y="31.104" width="38.572" height="517.558"/>
		<g>
			<path d="M149.611,66.188c0,19.866-16.101,35.965-35.961,35.965S77.685,86.054,77.685,66.188c0-19.859,16.105-35.96,35.965-35.96
				S149.611,46.328,149.611,66.188z"/>
			<path d="M153.712,234.424c0.394-17.202,11.341-44.172,11.341-44.172l31.273,104.762h30.099c0,0-20.872-110.437-23.457-120.788
				c-2.731-10.947-5.597-31.133-22.669-43.676c-17.388-12.773-58.607-15.24-66.059-15.583l-0.005-0.058c0,0-0.208,0.012-0.585,0.029
				c-0.375-0.018-0.59-0.029-0.59-0.029v0.058c-7.462,0.343-48.676,2.81-66.064,15.583c-17.078,12.543-19.934,32.729-22.675,43.676
				C21.736,184.577,0.87,295.014,0.87,295.014h30.099l31.273-104.762c0,0,10.946,26.97,11.335,44.172
				c0,0-23.063,27.755-32.055,63.333c-8.199,32.447-11.723,49.639-10.947,73.095l48.476-0.389L94.69,548.662h37.915l15.64-178.199
				l48.47,0.389c0.781-23.456-2.742-40.647-10.947-73.095C176.782,262.179,153.712,234.424,153.712,234.424z"/>
		</g>
		<g>
			<path d="M508.875,66.188c0,19.866-16.101,35.965-35.968,35.965c-19.858,0-35.96-16.099-35.96-35.965
				c0-19.859,16.102-35.96,35.96-35.96C492.774,30.228,508.875,46.328,508.875,66.188z"/>
			<path d="M578.833,171.202c-2.608-27.098-27.036-45.115-44.829-50.555c-14.205-4.344-43.95-5.39-57.555-5.646v-0.092
				c0,0-1.31,0-3.535,0.035c-2.23-0.035-3.54-0.035-3.54-0.035v0.092c-13.605,0.257-43.343,1.303-57.558,5.646
				c-17.789,5.439-42.219,23.457-44.827,50.555c-2.298,24.012,9.385,145.183,9.385,145.183h27.109V189.966h8.333l3.132,358.696
				h37.522l15.639-222.112h9.604l15.64,222.112h37.527l3.123-358.696h8.347v126.419h27.097
				C569.447,316.385,581.137,195.214,578.833,171.202z"/>
		</g>
	</g>
</g>
<g id="ガイド">
</g>
</svg>
