<?xml version="1.0" encoding="utf-8"?>
<!-- Generator: Adobe Illustrator 13.0.0, SVG Export Plug-In . SVG Version: 6.00 Build 14948)  -->
<!DOCTYPE svg PUBLIC "-//W3C//DTD SVG 1.0//EN" "http://www.w3.org/TR/2001/REC-SVG-20010904/DTD/svg10.dtd">
<svg version="1.0" xmlns="http://www.w3.org/2000/svg" xmlns:xlink="http://www.w3.org/1999/xlink" x="0px" y="0px" width="580px"
	 height="580px" viewBox="0 0 580 580" enable-background="new 0 0 580 580" xml:space="preserve">
<g id="地図記号">
	<g>
		<path d="M124.815,307.572c27.162,0,49.183-22.02,49.183-49.182c0-27.162-22.021-49.182-49.183-49.182
			c-27.162,0-49.182,22.02-49.182,49.182C75.633,285.553,97.653,307.572,124.815,307.572z M579.47,400.021v-51.914
			c0.037-13.633-5.538-26.01-14.502-34.881c-8.946-8.91-21.408-14.322-35.448-15.381l-302.375-22.191
			c-5.056-0.447-9.67-0.738-13.909-0.738c-5.941,0.004-11.23,0.536-16.214,2.207c-7.562,2.443-13.551,7.959-17.646,14.824
			c-4.212,6.912-7.441,15.348-11.503,26.52l-0.052,0.133l-12.45,40.215c-8.267-12.953-22.198-27.82-45.666-40.844
			c-21.636-12.014-45.425-15.316-60.831-16.191V180.971H0.804v393.49h48.069v-86.902H533.29v86.902h46.181V413.469H48.873v-13.447
			H579.47z M184.595,324.406c5.187-14.582,9.127-23.217,12.615-26.842c1.741-1.869,3.167-2.803,5.489-3.614
			c2.305-0.788,5.694-1.283,10.537-1.278c3.439,0,7.583,0.236,12.48,0.68l29.532,2.164l-30.064,86.014h-58.268L184.595,324.406z
			 M48.873,320.094c13.843,0.91,34.662,4.117,51.907,13.84c24.625,13.803,36.395,28.807,42.322,40.053
			c1.447,2.76,2.527,5.293,3.345,7.543H48.873V320.094z M468.356,275.047h27.438V111.154h77.763L527.82,4.428h-96.05
			l-45.739,106.726h82.325V275.047z"/>
	</g>
</g>
<g id="ガイド">
</g>
</svg>
