<?xml version="1.0" encoding="utf-8"?>
<!-- Generator: Adobe Illustrator 13.0.0, SVG Export Plug-In . SVG Version: 6.00 Build 14948)  -->
<!DOCTYPE svg PUBLIC "-//W3C//DTD SVG 1.0//EN" "http://www.w3.org/TR/2001/REC-SVG-20010904/DTD/svg10.dtd">
<svg version="1.0" xmlns="http://www.w3.org/2000/svg" xmlns:xlink="http://www.w3.org/1999/xlink" x="0px" y="0px" width="580px"
	 height="580px" viewBox="0 0 580 580" enable-background="new 0 0 580 580" xml:space="preserve">
<g id="地図記号">
	<g>
		<path d="M480.653,1.307c-56.486,0-89.018,33.105-89.018,59.639v246.445c0,27.326,20.043,49.922,46.229,54.045V579.25h58.196V1.307
			H480.653z"/>
		<path d="M275.657,22.625h-30.388v137.971h-38.093V22.625h-37.661v137.971h-38.082V22.625h-30.393c0,0-18.827,93.03-18.827,134.972
			c0,41.94,38.942,74.465,71.895,86.88V579.25h68.481V244.478c32.952-12.415,71.901-44.94,71.901-86.88
			C294.491,115.656,275.657,22.625,275.657,22.625z"/>
	</g>
</g>
<g id="ガイド">
</g>
</svg>
