<?xml version="1.0" encoding="utf-8"?>
<!-- Generator: Adobe Illustrator 13.0.0, SVG Export Plug-In . SVG Version: 6.00 Build 14948)  -->
<!DOCTYPE svg PUBLIC "-//W3C//DTD SVG 1.0//EN" "http://www.w3.org/TR/2001/REC-SVG-20010904/DTD/svg10.dtd">
<svg version="1.0" xmlns="http://www.w3.org/2000/svg" xmlns:xlink="http://www.w3.org/1999/xlink" x="0px" y="0px" width="580px"
	 height="580px" viewBox="0 0 580 580" enable-background="new 0 0 580 580" xml:space="preserve">
<g id="地図記号">
	<g>
		<path d="M290.1,0.706L11.85,195.139v384.045h556.517V195.127L290.1,0.706z M532.16,542.975h-41.24
			c1.062-15.838,3.177-42.948,7.389-86.521c6.994-72.31-41.681-91.618-80.281-96.641c-13.9-1.808-47.304-5.737-47.304-5.737
			l-44.305,62.388l-48.999-66.277c0,0-62.718-1.578-106.715-4.478c-6.688-0.436-11.166-13.77-0.772-19.438
			c29.066-15.845,48.011-23.512,48.011-23.512l-3.093-62.204c-43.945,21.772-87.866,52.099-128.298,73.865
			c-33.992,18.302-22.857,69.777,4.667,75.415c49.07,10.058,110.779,20.411,110.779,20.411c14,0.771,15.544,8.549,15.544,22.549
			v110.179H48.052V214.006L290.1,44.862l242.06,169.144V542.975z M242.255,260.378h18.614c0.175,45.312,31.895,69.857,70.995,69.857
			c39.213,0,71.379-25.053,71.379-70.247v-32.649H255.165C210.743,258.098,242.255,260.378,242.255,260.378z M227.277,157.016
			c0,3.041,2.416,9.239,6.304,16.693c4.455,8.531,6.305,11.5,10.064,19.332c6.853,14.282,10.759,21.389,10.759,21.389h148.838
			c0,0,4.073-21.772,5.698-31.136c1.22-6.987-0.141-8.59-5.698-9.875c-6.812-1.567-133.441-18.931-151.495-21.636
			C234.695,149.227,227.277,150.71,227.277,157.016z M278.068,173.802c8.527,0,15.444,6.911,15.444,15.444
			c0,8.526-6.917,15.438-15.444,15.438c-8.532,0-15.432-6.912-15.432-15.438C262.636,180.713,269.536,173.802,278.068,173.802z"/>
	</g>
</g>
<g id="ガイド">
</g>
</svg>
