<?xml version="1.0" encoding="utf-8"?>
<!-- Generator: Adobe Illustrator 13.0.0, SVG Export Plug-In . SVG Version: 6.00 Build 14948)  -->
<!DOCTYPE svg PUBLIC "-//W3C//DTD SVG 1.0//EN" "http://www.w3.org/TR/2001/REC-SVG-20010904/DTD/svg10.dtd">
<svg version="1.0" xmlns="http://www.w3.org/2000/svg" xmlns:xlink="http://www.w3.org/1999/xlink" x="0px" y="0px" width="580px"
	 height="580px" viewBox="0 0 580 580" enable-background="new 0 0 580 580" xml:space="preserve">
<g id="地図記号">
	<g>
		<path d="M522.02,144.705L289.858,11.526L58.833,144.705H1.124v55.433h578.642v-55.433H522.02z M169.844,144.705l120.081-69.222
			l120.688,69.222H169.844z M2.76,567.363h575.387v-30.791H2.76V567.363z M28.078,487.188v34.734h110.746v-34.734h-19.249
			c0,0-7.843-216.777-7.843-226.907c0-5.429,5.906-12.181,9.726-12.181c5.233,0,11.58,0,11.58,0v-31.246H37.491V248.1
			c0,0,5.131,0,10.857,0c4.638,0,10.437,5.668,10.437,12.181c0,10.135-7.831,226.907-7.831,226.907H28.078z M435.931,487.188v34.734
			h110.733v-34.734h-19.243c0,0-7.837-216.777-7.837-226.907c0-5.429,5.906-12.181,9.715-12.181c5.244,0,11.577,0,11.577,0v-31.246
			h-95.545V248.1c0,0,5.144,0,10.869,0c4.626,0,10.438,5.668,10.438,12.181c0,10.135-7.833,226.907-7.833,226.907H435.931z
			 M299.975,487.188v34.734h110.746v-34.734h-19.248c0,0-7.826-216.777-7.826-226.907c0-5.429,5.901-12.181,9.703-12.181
			c5.237,0,11.571,0,11.571,0v-31.246h-95.532V248.1c0,0,5.143,0,10.858,0c4.637,0,10.448,5.668,10.448,12.181
			c0,10.135-7.838,226.907-7.838,226.907H299.975z M164.027,487.188v34.734h110.746v-34.734h-19.249
			c0,0-7.825-216.777-7.825-226.907c0-5.429,5.9-12.181,9.713-12.181c5.241,0,11.58,0,11.58,0v-31.246h-95.538V248.1
			c0,0,5.137,0,10.845,0c4.644,0,10.448,5.668,10.448,12.181c0,10.135-7.838,226.907-7.838,226.907H164.027z"/>
	</g>
</g>
<g id="ガイド">
</g>
</svg>
