<?xml version="1.0" encoding="utf-8"?>
<!-- Generator: Adobe Illustrator 13.0.0, SVG Export Plug-In . SVG Version: 6.00 Build 14948)  -->
<!DOCTYPE svg PUBLIC "-//W3C//DTD SVG 1.0//EN" "http://www.w3.org/TR/2001/REC-SVG-20010904/DTD/svg10.dtd">
<svg version="1.0" xmlns="http://www.w3.org/2000/svg" xmlns:xlink="http://www.w3.org/1999/xlink" x="0px" y="0px" width="580px"
	 height="580px" viewBox="0 0 580 580" enable-background="new 0 0 580 580" xml:space="preserve">
<g id="地図記号">
	<g>
		<path fill="#231815" d="M28.566,499.667C12.683,482.904,2.294,462.29,2.312,439.716l0,0c-0.031-21.124,9.123-40.635,23.321-56.72
			l0,0c14.257-16.195,33.635-29.779,56.846-41.279l0,0l16.977,34.36c-19.951,9.839-35.32,21.106-45.021,32.201l0,0
			c-9.739,11.223-13.752,21.449-13.784,31.438l0,0c0.032,10.633,4.619,21.668,15.831,33.679l0,0
			c11.117,11.875,28.688,23.754,51.26,33.865l0,0c45.153,20.347,109.854,33.599,181.415,33.544l0,0
			c107.275,0.549,199.372-30.866,232.652-67.409l0,0c11.204-12.011,15.795-23.046,15.828-33.679l0,0
			c-0.044-9.932-4.005-20.089-13.646-31.239l0,0c-9.563-11.037-24.743-22.241-44.483-32.056l0,0l17.096-34.316
			c22.973,11.499,42.17,25.038,56.295,41.18l0,0c14.056,16.015,23.091,35.427,23.065,56.432l0,0
			c0.025,22.574-10.362,43.188-26.242,59.951l0,0c-15.958,16.91-37.596,30.922-63.463,42.569l0,0
			c-51.729,23.188-120.847,36.851-197.102,36.905l0,0C174.707,578.599,76.565,549.438,28.566,499.667L28.566,499.667z"/>
		<path fill="#231815" d="M168.016,438.698l-28.148-14.08c0.16-0.333,7.192-13.652,14.543-33.167l0,0
			c7.306-19.248,14.217-44.124,14.118-63.546l0,0c0.618-14.427-12.272-39.975-27.745-67.944l0,0
			c-14.979-28.276-32.051-60.04-32.319-96.215l0,0c0.476-54.025,31.103-99.239,31.721-100.743l0,0h0.011l32.106,20.896
			c0.021,0.019-0.223,0.362-0.885,1.467l0,0c-0.661,1.091-1.666,2.782-2.87,4.966l0,0c-2.427,4.379-5.715,10.749-8.971,18.418l0,0
			c-6.576,15.311-12.848,35.793-12.779,54.997l0,0c-0.269,22.924,12.704,50.457,27.746,78.07l0,0
			c14.557,27.915,31.694,54.898,32.324,86.089l0,0c-0.523,52.609-30.222,108.379-32.718,113.862l0,0h0.007h-0.007
			c-0.019,0.04-0.036,0.072-0.05,0.103l0,0L168.016,438.698L168.016,438.698z"/>
		<path fill="#231815" d="M412.343,438.861l-28.468-14.243c0.174-0.333,7.191-13.652,14.534-33.167l0,0
			c7.306-19.248,14.243-44.124,14.127-63.546l0,0c0.629-14.427-12.272-39.975-27.745-67.944l0,0
			c-14.98-28.276-32.051-60.04-32.307-96.215l0,0c0.474-54.025,31.089-99.239,31.719-100.743l0,0l32.127,20.896
			c0,0.019-0.231,0.362-0.905,1.467l0,0c-0.663,1.091-1.652,2.782-2.871,4.966l0,0c-2.414,4.379-5.703,10.749-8.971,18.418l0,0
			c-6.576,15.311-12.834,35.793-12.779,54.997l0,0c-0.255,22.924,12.704,50.457,27.76,78.07l0,0
			c14.555,27.915,31.694,54.898,32.311,86.089l0,0c-0.511,52.564-30.178,108.298-32.718,113.851l0,0h0.008l-0.008,0.012h0.008
			h-0.008l-0.051,0.103L412.343,438.861L412.343,438.861z"/>
		<path fill="#231815" d="M263.463,430.318c-0.011-0.01,1.972-3.972,5.111-11.06l0,0c3.163-7.107,7.381-17.114,11.574-28.537l0,0
			c8.44-22.725,16.465-51.647,16.334-72.032l0,0c0.43-20.017-13.379-51.367-29.068-84.166l0,0
			c-15.305-33.154-32.369-68.125-32.699-104.643l0,0c0.199-61.768,23.838-127.597,24.059-128.633l0,0l0.012,0.013l36.148,12.703
			c0,0.019-1.278,3.65-3.352,10.369l0,0c-2.063,6.731-4.834,16.316-7.603,27.614l0,0c-5.54,22.536-10.971,51.979-10.927,77.934l0,0
			c-0.329,23.396,13.483,55.665,29.057,88.364l0,0c15.186,33.03,32.268,66.116,32.7,100.444l0,0
			c-0.146,29.106-9.614,60.27-18.676,85.232l0,0c-9.134,24.852-18.131,43.006-18.316,43.438l0,0L263.463,430.318L263.463,430.318z"
			/>
	</g>
</g>
<g id="ガイド">
</g>
</svg>
