<?xml version="1.0" encoding="utf-8"?>
<!-- Generator: Adobe Illustrator 13.0.0, SVG Export Plug-In . SVG Version: 6.00 Build 14948)  -->
<!DOCTYPE svg PUBLIC "-//W3C//DTD SVG 1.0//EN" "http://www.w3.org/TR/2001/REC-SVG-20010904/DTD/svg10.dtd">
<svg version="1.0" xmlns="http://www.w3.org/2000/svg" xmlns:xlink="http://www.w3.org/1999/xlink" x="0px" y="0px" width="580px"
	 height="580px" viewBox="0 0 580 580" enable-background="new 0 0 580 580" xml:space="preserve">
<g id="地図記号">
	<path d="M0.503,79.884v419.122h579.27V79.884H0.503z M335.654,296.242c-4.576,3.632-26.396,17.898-43.46,17.3
		c-15.427,0-27.813-4.496-36.417-9.014c-4.283-2.251-7.576-4.493-9.676-6.075c-1.05-0.795-1.802-1.418-2.233-1.785
		c-0.124-0.105-0.22-0.189-0.293-0.254L64.641,117.447h450.832L335.654,296.242z M185.242,291.213L38.075,435.506V144.018
		L185.242,291.213z M211.803,317.779l5.549,5.549l0.233,0.216c1.734,1.527,28.667,27.321,74.608,27.565
		c19.463-0.1,35.977-7.034,48.006-13.406c12.01-6.464,19.609-12.725,20.261-13.254l0.618-0.518l8.218-8.174l146.227,145.684H65.279
		L211.803,317.779z M395.937,289.27l146.258-145.431l0.009,291.147L395.937,289.27z"/>
</g>
<g id="ガイド">
</g>
</svg>
