<?xml version="1.0" encoding="utf-8"?>
<!-- Generator: Adobe Illustrator 13.0.0, SVG Export Plug-In . SVG Version: 6.00 Build 14948)  -->
<!DOCTYPE svg PUBLIC "-//W3C//DTD SVG 1.0//EN" "http://www.w3.org/TR/2001/REC-SVG-20010904/DTD/svg10.dtd">
<svg version="1.0" xmlns="http://www.w3.org/2000/svg" xmlns:xlink="http://www.w3.org/1999/xlink" x="0px" y="0px" width="580px"
	 height="580px" viewBox="0 0 580 580" enable-background="new 0 0 580 580" xml:space="preserve">
<g id="地図記号">
	<path d="M399.47,436.321l52.014-3.603c0,0,29.207-67.528,29.207-106.056V55.976c0-19.644-27.031-55.246-46.668-55.246H144.251
		c-19.638,0-46.672,35.602-46.672,55.246v270.687c0,34.081,29.206,106.056,29.206,106.056l52.088,3.521L56.034,579.25h61.019
		l81.172-98.682h181.823l81.158,98.682h61.033L399.47,436.321z M400.492,369.266c-14.525,0-26.299-11.771-26.299-26.297
		c0-14.526,11.773-26.312,26.299-26.312c14.533,0,26.305,11.785,26.305,26.312C426.797,357.494,415.025,369.266,400.492,369.266z
		 M208.893,30.732c0-2.457,1.997-4.454,4.447-4.454h151.593c2.451,0,4.447,1.997,4.447,4.454v25.609
		c0,2.462-1.996,4.448-4.447,4.448H213.341c-2.45,0-4.447-1.985-4.447-4.448V30.732z M135.549,224.688v-117.6
		c0-9.818,7.785-17.775,17.386-17.775h272.403c9.604,0,17.387,7.958,17.387,17.775v117.6c0,9.818-7.783,17.776-17.387,17.776
		H152.935C143.334,242.464,135.549,234.506,135.549,224.688z M151.477,342.969c0-14.526,11.773-26.312,26.305-26.312
		c14.526,0,26.298,11.785,26.298,26.312c0,14.525-11.772,26.297-26.298,26.297C163.25,369.266,151.477,357.494,151.477,342.969z"/>
</g>
<g id="ガイド">
</g>
</svg>
