<?xml version="1.0" encoding="utf-8"?>
<!-- Generator: Adobe Illustrator 13.0.0, SVG Export Plug-In . SVG Version: 6.00 Build 14948)  -->
<!DOCTYPE svg PUBLIC "-//W3C//DTD SVG 1.0//EN" "http://www.w3.org/TR/2001/REC-SVG-20010904/DTD/svg10.dtd">
<svg version="1.0" xmlns="http://www.w3.org/2000/svg" xmlns:xlink="http://www.w3.org/1999/xlink" x="0px" y="0px" width="580px"
	 height="580px" viewBox="0 0 580 580" enable-background="new 0 0 580 580" xml:space="preserve">
<g id="地図記号">
	<g>
		<path fill="#231815" d="M1.082,21.204v149.232h86.353v-35.283H36.365V56.487h68.441l-0.018,449.212H420.78V56.487h19.072v465.897
			H155.704v35.301l319.438-0.012V56.487h68.422v78.666h-51.729v35.283h87.023V21.204H1.082z M385.491,470.426H140.078l0.018-413.938
			h245.396V470.426z M178.68,280.299v33.174h54.239V326.6h-54.245v33.17h54.245V404h58.059v-44.23h45.946V326.6h-45.946v-13.127
			h45.946v-33.174h-36.42l54.299-107.465h-54.598l-39.05,89.034l-44.758-89.034h-55.589l58.196,107.465H178.68z"/>
	</g>
</g>
<g id="ガイド">
</g>
</svg>
